<svg width="42" height="41" viewBox="0 0 42 41" fill="none" xmlns="http://www.w3.org/2000/svg">
<g filter="url(#filter0_d_580_2363)">
<rect x="6" y="2" width="30" height="30" rx="12" fill="#1A1F37"/>
</g>
<g clip-path="url(#clip0_580_2363)">
<path d="M16.5469 24.0316H15.6094C15.4229 24.0316 15.2441 23.9575 15.1122 23.8257C14.9803 23.6938 14.9062 23.515 14.9062 23.3285V19.1097C14.9062 18.9233 14.9803 18.7444 15.1122 18.6126C15.2441 18.4807 15.4229 18.4066 15.6094 18.4066H16.5469C16.7334 18.4066 16.9122 18.4807 17.0441 18.6126C17.1759 18.7444 17.25 18.9233 17.25 19.1097V23.3285C17.25 23.515 17.1759 23.6938 17.0441 23.8257C16.9122 23.9575 16.7334 24.0316 16.5469 24.0316Z" fill="#0075FF"/>
<path d="M23.1094 24.0308H22.1719C21.9854 24.0308 21.8066 23.9567 21.6747 23.8249C21.5428 23.693 21.4688 23.5142 21.4688 23.3277V16.2964C21.4688 16.11 21.5428 15.9311 21.6747 15.7993C21.8066 15.6674 21.9854 15.5933 22.1719 15.5933H23.1094C23.2959 15.5933 23.4747 15.6674 23.6066 15.7993C23.7384 15.9311 23.8125 16.11 23.8125 16.2964V23.3277C23.8125 23.5142 23.7384 23.693 23.6066 23.8249C23.4747 23.9567 23.2959 24.0308 23.1094 24.0308Z" fill="#0075FF"/>
<path d="M26.3906 24.0311H25.4531C25.2666 24.0311 25.0878 23.957 24.9559 23.8252C24.8241 23.6933 24.75 23.5145 24.75 23.328V13.0155C24.75 12.829 24.8241 12.6502 24.9559 12.5183C25.0878 12.3865 25.2666 12.3124 25.4531 12.3124H26.3906C26.5771 12.3124 26.7559 12.3865 26.8878 12.5183C27.0197 12.6502 27.0937 12.829 27.0937 13.0155V23.328C27.0937 23.5145 27.0197 23.6933 26.8878 23.8252C26.7559 23.957 26.5771 24.0311 26.3906 24.0311Z" fill="#0075FF"/>
<path d="M19.8281 24.031H18.8906C18.7041 24.031 18.5253 23.9569 18.3934 23.8251C18.2616 23.6932 18.1875 23.5144 18.1875 23.3279V10.6716C18.1875 10.4852 18.2616 10.3063 18.3934 10.1744C18.5253 10.0426 18.7041 9.96851 18.8906 9.96851H19.8281C20.0146 9.96851 20.1934 10.0426 20.3253 10.1744C20.4572 10.3063 20.5312 10.4852 20.5312 10.6716V23.3279C20.5312 23.5144 20.4572 23.6932 20.3253 23.8251C20.1934 23.9569 20.0146 24.031 19.8281 24.031Z" fill="#0075FF"/>
</g>
<defs>
<filter id="filter0_d_580_2363" x="0.5" y="-2.38419e-07" width="41" height="41" filterUnits="userSpaceOnUse" color-interpolation-filters="sRGB">
<feFlood flood-opacity="0" result="BackgroundImageFix"/>
<feColorMatrix in="SourceAlpha" type="matrix" values="0 0 0 0 0 0 0 0 0 0 0 0 0 0 0 0 0 0 127 0" result="hardAlpha"/>
<feOffset dy="3.5"/>
<feGaussianBlur stdDeviation="2.75"/>
<feColorMatrix type="matrix" values="0 0 0 0 0 0 0 0 0 0 0 0 0 0 0 0 0 0 0.02 0"/>
<feBlend mode="normal" in2="BackgroundImageFix" result="effect1_dropShadow_580_2363"/>
<feBlend mode="normal" in="SourceGraphic" in2="effect1_dropShadow_580_2363" result="shape"/>
</filter>
<clipPath id="clip0_580_2363">
<rect width="15" height="15" fill="white" transform="translate(13.5 9.5)"/>
</clipPath>
</defs>
</svg>
